<?xml version="1.0" standalone="no"?>
<!DOCTYPE svg PUBLIC "-//W3C//DTD SVG 20010904//EN"
 "http://www.w3.org/TR/2001/REC-SVG-20010904/DTD/svg10.dtd">
<svg version="1.0" xmlns="http://www.w3.org/2000/svg"
 width="600.000000pt" height="600.000000pt" viewBox="0 0 600.000000 600.000000"
 preserveAspectRatio="xMidYMid meet">
<metadata>
Created by potrace 1.11, written by Peter Selinger 2001-2013
</metadata>
<g transform="translate(0.000000,600.000000) scale(0.100000,-0.100000)"
fill="#000000" stroke="none">
<path d="M1011 5269 c-75 -22 -157 -93 -199 -174 l-27 -50 0 -1205 0 -1205 27
-51 c29 -54 96 -127 138 -149 69 -36 76 -36 2048 -36 1627 0 1944 2 1983 14
89 27 161 95 204 191 l25 56 -3 1188 -2 1187 -26 55 c-31 65 -95 131 -158 162
l-46 23 -1965 2 c-1242 1 -1977 -2 -1999 -8z m3915 -264 c18 -13 19 -50 19
-1164 0 -1061 -1 -1152 -17 -1167 -15 -15 -157 -17 -1933 -17 -1784 0 -1917 1
-1933 17 -16 15 -17 102 -18 1163 0 1082 1 1148 17 1164 17 17 118 18 1932 18
1608 0 1917 -2 1933 -14z"/>
<path d="M2552 4650 c-45 -10 -45 -12 -18 -46 13 -16 49 -60 79 -97 72 -88 85
-124 63 -180 -20 -50 -54 -77 -105 -84 -56 -8 -91 16 -172 114 -40 49 -78 94
-84 102 -11 11 -17 2 -35 -45 -77 -206 42 -439 254 -500 57 -16 135 -15 207 2
23 5 34 -4 95 -77 38 -46 76 -91 84 -99 24 -26 63 -72 98 -117 32 -41 32 -42
18 -80 -84 -216 46 -450 271 -491 172 -31 346 70 404 233 69 195 -36 405 -234
471 -46 15 -160 17 -216 2 -12 -3 -291 316 -291 333 0 4 7 24 16 45 23 54 27
80 26 154 -2 197 -160 359 -356 365 -39 1 -86 -1 -104 -5z"/>
<path d="M2040 2169 c-51 -30 -72 -63 -72 -114 0 -48 20 -84 60 -112 26 -17
75 -18 954 -19 856 -1 931 1 966 16 90 40 94 173 7 232 -16 11 -190 13 -950
15 -922 3 -930 2 -965 -18z"/>
<path d="M4139 1796 c-1 -1 -3 -121 -4 -268 l-1 -268 33 0 33 0 0 268 0 268
-30 0 c-16 0 -31 0 -31 0z"/>
<path d="M453 1510 l1 -250 33 0 33 0 0 93 0 92 65 1 c107 3 165 52 172 146 9
115 -53 164 -210 167 l-94 2 0 -251z m212 160 c38 -36 35 -100 -6 -134 -25
-21 -41 -26 -85 -26 l-54 0 0 95 0 95 60 -3 c46 -3 66 -9 85 -27z"/>
<path d="M2935 1511 l-1 -251 33 0 c37 0 35 -7 34 120 l0 65 46 0 c35 0 48 -5
57 -19 6 -11 14 -25 19 -30 4 -6 25 -39 48 -73 37 -57 44 -63 75 -63 19 0 34
3 34 6 0 4 -25 46 -55 94 -30 48 -55 92 -55 97 0 5 9 18 21 29 52 47 66 142
29 201 -31 51 -71 66 -185 71 l-100 4 0 -251z m210 159 c27 -25 34 -84 15
-120 -12 -23 -61 -40 -116 -40 l-43 0 1 94 0 95 59 -3 c46 -2 64 -8 84 -26z"/>
<path d="M2087 1679 c-39 -22 -4 -79 35 -58 10 5 18 18 18 29 0 25 -30 41 -53
29z"/>
<path d="M1850 1610 c0 -57 -1 -60 -25 -60 -21 0 -25 -5 -25 -29 0 -23 4 -28
23 -27 21 1 22 -2 25 -116 l3 -118 33 0 33 0 -1 106 c-1 114 3 128 34 130 46
3 47 4 42 29 -3 16 -11 25 -21 24 -54 -5 -56 -2 -55 61 l1 60 -33 0 -34 0 0
-60z"/>
<path d="M975 1545 c-16 -9 -38 -25 -47 -36 -16 -19 -17 -19 -20 8 -2 22 -9
29 -30 31 -32 4 -29 18 -31 -168 l0 -115 31 -3 32 -3 0 78 c0 91 20 134 69
151 17 6 31 8 32 4 0 -4 4 2 8 13 8 21 3 55 -8 55 -3 0 -19 -7 -36 -15z"/>
<path d="M1172 1550 c-59 -24 -97 -93 -89 -161 7 -58 22 -84 64 -110 43 -27
103 -27 148 0 44 25 43 25 41 4 -1 -13 8 -19 31 -21 l32 -3 -1 145 -1 146 -27
0 c-20 0 -29 -6 -33 -21 -6 -20 -7 -21 -23 -4 -34 33 -94 44 -142 25z m137
-75 c40 -39 30 -129 -18 -155 -62 -32 -141 15 -141 85 0 48 15 74 53 90 39 17
74 10 106 -20z"/>
<path d="M1603 1549 c-73 -15 -116 -70 -115 -147 2 -88 65 -147 154 -145 27 1
61 9 75 18 23 16 24 17 8 35 -13 15 -22 17 -36 10 -36 -20 -80 -11 -110 21
-40 42 -40 90 0 130 31 31 61 36 108 18 23 -8 30 -7 40 7 11 15 11 21 -1 32
-19 19 -83 30 -123 21z"/>
<path d="M2345 1550 c-69 -15 -110 -57 -120 -124 -14 -89 52 -167 142 -167 82
-1 127 29 90 59 -8 7 -18 7 -27 2 -31 -20 -81 -11 -111 19 -73 74 -2 189 95
153 25 -10 33 -9 48 5 16 14 17 19 4 31 -18 18 -82 30 -121 22z"/>
<path d="M2624 1541 c-81 -37 -111 -139 -63 -217 27 -44 69 -66 126 -66 44 0
103 18 103 31 0 4 -6 15 -12 24 -11 15 -18 15 -44 6 -34 -13 -69 -8 -99 15
-26 20 -19 25 106 67 55 18 99 36 99 39 -1 22 -51 86 -80 101 -44 24 -84 24
-136 0z m116 -54 c11 -9 20 -21 20 -26 0 -7 -134 -61 -152 -61 -14 0 -8 45 8
68 30 43 87 51 124 19z"/>
<path d="M3430 1537 c-57 -30 -82 -76 -77 -143 2 -29 12 -62 23 -77 38 -53
128 -74 194 -47 34 14 36 19 16 46 -13 16 -18 17 -35 7 -30 -19 -73 -15 -100
8 -13 11 -21 22 -18 25 3 3 48 20 101 38 53 18 102 38 108 44 17 17 -36 90
-77 108 -48 20 -85 18 -135 -9z m125 -47 c8 -7 15 -18 15 -24 0 -10 -132 -66
-155 -66 -17 0 7 67 33 88 29 24 79 25 107 2z"/>
<path d="M3795 1546 c-62 -28 -100 -103 -87 -173 6 -38 48 -92 80 -105 51 -20
121 -8 156 28 15 14 16 13 16 -10 0 -22 4 -26 30 -26 27 0 30 3 31 33 1 38 1
214 0 240 -1 25 -51 23 -58 -3 -5 -19 -5 -19 -33 1 -35 26 -97 33 -135 15z
m110 -51 c50 -20 70 -82 44 -138 -23 -50 -100 -62 -142 -23 -68 63 -39 147 61
175 1 1 18 -6 37 -14z"/>
<path d="M4523 1549 c-67 -14 -107 -56 -117 -123 -19 -120 97 -203 218 -156
30 11 31 17 11 44 -12 16 -18 17 -27 8 -22 -22 -75 -14 -109 16 -79 70 2 197
98 153 21 -10 29 -9 45 5 15 14 16 20 6 30 -19 19 -88 31 -125 23z"/>
<path d="M4820 1553 c-62 -24 -102 -81 -102 -148 0 -88 60 -146 152 -147 123
0 197 118 139 221 -34 62 -126 98 -189 74z m91 -58 c34 -18 57 -66 51 -107 -6
-41 -48 -78 -88 -78 -75 0 -120 94 -74 153 20 26 50 45 73 46 4 1 21 -6 38
-14z"/>
<path d="M5232 1545 c-18 -8 -35 -21 -38 -30 -3 -8 -10 -15 -15 -15 -4 0 -6 6
-4 13 8 20 -11 39 -36 35 -24 -3 -24 -3 -24 -145 l0 -143 31 0 32 0 4 94 c3
84 6 97 27 120 26 28 69 34 89 14 8 -8 12 -49 12 -120 l0 -108 33 0 32 0 2 84
c2 88 18 138 48 150 52 20 87 -8 85 -68 -1 -22 -1 -69 -1 -103 l1 -63 30 0
c33 0 32 -6 32 115 0 120 -2 131 -20 153 -37 42 -98 41 -151 -4 -24 -20 -31
-22 -31 -10 0 18 -50 46 -82 46 -13 -1 -38 -7 -56 -15z"/>
<path d="M2070 1404 l0 -145 33 3 32 3 1 130 c0 72 -1 136 -4 143 -2 6 -17 12
-33 12 l-29 0 0 -146z"/>
<path d="M4295 1326 c-20 -15 -17 -45 7 -60 24 -15 53 13 44 42 -9 26 -30 34
-51 18z"/>
</g>
</svg>
