<?xml version="1.0" standalone="no"?>
<!DOCTYPE svg PUBLIC "-//W3C//DTD SVG 20010904//EN"
 "http://www.w3.org/TR/2001/REC-SVG-20010904/DTD/svg10.dtd">
<svg version="1.0" xmlns="http://www.w3.org/2000/svg"
 width="600.000000pt" height="600.000000pt" viewBox="0 0 600.000000 600.000000"
 preserveAspectRatio="xMidYMid meet">
<metadata>
Created by potrace 1.11, written by Peter Selinger 2001-2013
</metadata>
<g transform="translate(0.000000,600.000000) scale(0.100000,-0.100000)"
fill="#000000" stroke="none">
<path d="M327 5257 c4 -6 -5 -8 -20 -5 -15 3 -24 2 -22 -2 3 -5 -2 -11 -11
-14 -10 -4 -13 -2 -8 7 6 9 5 9 -8 0 -8 -7 -19 -9 -24 -5 -4 4 -2 -1 5 -11 12
-15 12 -17 -4 -11 -13 5 -16 4 -11 -4 5 -8 1 -10 -10 -5 -13 5 -15 3 -9 -8 6
-11 5 -11 -4 -3 -10 9 -19 6 -37 -11 -13 -12 -24 -28 -24 -34 0 -7 -4 -10 -9
-7 -5 3 -12 -1 -15 -10 -3 -8 -10 -12 -16 -9 -5 3 -10 1 -10 -4 0 -14 13 -14
28 1 6 6 14 9 17 6 4 -3 -7 -12 -24 -19 -16 -7 -27 -17 -25 -21 3 -4 -2 -8
-10 -8 -15 0 -21 -23 -16 -60 1 -10 -3 -9 -14 5 -15 19 -16 19 -9 1 4 -12 2
-17 -3 -13 -7 4 -9 -6 -6 -25 3 -23 1 -29 -8 -23 -9 6 -9 3 -1 -14 7 -12 8
-21 2 -21 -5 0 -11 6 -14 13 -2 6 -4 0 -4 -15 0 -20 4 -25 16 -21 14 4 14 3 0
-6 -14 -9 -15 -170 -15 -1588 1 -868 5 -1584 9 -1590 5 -8 4 -13 -3 -13 -6 0
-8 -5 -5 -10 4 -6 12 -7 18 -4 9 5 9 4 1 -5 -12 -13 3 -71 18 -71 4 0 8 -5 8
-11 0 -5 -5 -7 -12 -3 -7 4 -8 3 -4 -5 6 -9 11 -9 24 1 14 12 14 10 3 -11 -8
-15 -9 -21 -2 -17 7 5 11 -2 11 -16 0 -18 2 -20 10 -8 7 12 10 8 10 -15 0 -17
4 -25 8 -18 5 8 12 7 27 -4 20 -16 20 -16 0 -9 -17 6 -16 4 5 -16 13 -13 25
-21 25 -18 2 9 35 -28 35 -40 0 -6 5 -8 10 -5 6 3 10 1 10 -4 0 -6 3 -10 8
-10 19 3 33 -2 28 -10 -4 -5 6 -8 20 -6 15 1 28 -3 31 -11 3 -8 9 -11 14 -8 5
2 17 0 28 -5 14 -8 21 -8 24 2 4 8 6 8 6 0 1 -6 10 -9 23 -5 16 4 19 2 13 -9
-7 -11 -6 -12 6 -2 8 6 24 11 34 9 11 -2 24 2 28 8 5 6 6 0 3 -14 -5 -24 -5
-24 10 -5 12 16 16 17 23 6 7 -11 9 -11 13 0 4 12 8 11 23 -1 11 -9 16 -10 11
-2 -4 6 -2 12 3 12 6 0 11 -6 11 -12 0 -9 3 -8 10 2 7 11 12 12 21 3 13 -13
42 -6 33 8 -3 5 2 6 11 3 10 -4 14 -13 11 -23 -4 -11 -2 -10 9 3 15 20 15 20
30 0 13 -16 14 -16 9 -1 -3 9 -1 17 5 17 6 0 11 -6 11 -12 0 -9 4 -8 10 2 8
12 11 13 19 1 7 -11 9 -11 13 0 4 12 8 11 23 -1 10 -8 16 -10 12 -4 -4 7 2 12
18 12 14 0 23 -4 20 -8 -2 -3 2 -7 10 -7 8 0 12 4 9 9 -8 13 10 10 25 -4 11
-10 13 -10 7 0 -8 14 10 17 19 2 3 -5 12 -7 20 -4 8 4 12 10 9 15 -6 11 25 0
45 -15 11 -8 13 -8 7 2 -4 7 -2 12 6 12 8 0 20 -6 27 -12 11 -10 13 -10 7 0
-4 7 -2 12 6 12 8 0 20 -6 27 -12 11 -10 13 -10 7 0 -4 7 -2 12 6 12 8 0 20
-6 27 -12 11 -10 13 -10 7 0 -5 8 0 12 14 12 12 0 19 -4 15 -9 -3 -5 -1 -13 5
-16 6 -4 9 -1 8 6 -2 6 3 14 11 17 9 3 11 0 6 -9 -6 -11 -5 -12 6 -1 17 16 32
16 23 0 -5 -8 -1 -8 10 1 15 13 19 13 27 0 6 -10 9 -10 9 -1 0 6 5 12 11 12 5
0 7 -6 3 -12 -6 -10 -4 -10 7 0 17 16 32 16 23 0 -6 -10 -4 -10 7 -1 17 17 32
17 23 1 -5 -8 -1 -8 10 1 15 13 19 13 27 0 6 -10 9 -10 9 -1 0 6 5 12 11 12 5
0 7 -6 3 -12 -5 -8 -1 -8 10 1 15 13 19 13 27 0 5 -8 9 -9 9 -2 0 13 18 12 39
-1 10 -6 12 -5 7 2 -10 16 16 15 33 -1 11 -9 13 -9 7 1 -4 7 -2 12 6 12 8 0
20 -6 27 -12 11 -10 13 -10 7 0 -9 16 16 16 33 -1 11 -9 13 -9 7 1 -5 8 0 12
14 12 17 0 21 -4 16 -18 -5 -14 -4 -14 9 2 15 20 15 20 30 0 13 -16 14 -16 9
-1 -3 9 -1 17 5 17 6 0 11 -6 11 -12 0 -9 4 -8 10 2 8 12 11 13 19 1 7 -11 9
-11 13 0 4 12 8 11 23 -1 10 -8 16 -10 12 -4 -4 7 2 12 18 12 14 0 23 -4 20
-8 -2 -3 2 -7 10 -7 8 0 12 4 9 9 -8 13 10 10 25 -5 11 -9 13 -9 7 1 -8 14 10
17 19 2 3 -5 12 -7 20 -4 8 4 12 10 9 15 -3 5 2 6 10 3 9 -3 13 -11 9 -18 -4
-6 1 -5 10 3 15 12 20 12 32 -5 11 -14 14 -15 9 -3 -4 12 1 17 20 17 14 0 26
-4 26 -9 0 -5 5 -9 11 -9 5 0 7 5 4 10 -4 7 3 9 19 6 14 -2 27 1 30 7 2 7 5 3
5 -8 1 -17 3 -18 11 -5 8 12 11 13 19 1 7 -11 9 -11 13 0 4 12 8 11 23 -1 11
-9 16 -10 11 -2 -4 6 -2 12 3 12 6 0 11 -6 11 -12 0 -9 3 -8 10 2 7 11 12 12
21 3 8 -8 19 -9 37 -2 19 7 27 6 38 -8 12 -15 13 -15 8 -2 -4 12 1 16 20 16
14 1 26 -3 26 -8 0 -5 5 -9 11 -9 5 0 7 5 4 10 -4 7 3 9 19 6 14 -2 27 1 30 7
2 7 5 3 5 -8 1 -17 3 -18 11 -5 8 12 11 13 19 1 7 -11 9 -11 13 0 4 12 8 11
23 -1 11 -9 16 -10 11 -2 -4 6 -2 12 3 12 6 0 11 -6 11 -12 0 -9 3 -8 10 2 7
11 12 12 21 3 13 -13 42 -6 33 8 -3 5 2 6 11 3 10 -4 14 -13 11 -23 -4 -11 -2
-10 9 3 15 20 15 20 30 0 13 -16 14 -16 9 -1 -3 9 -1 17 5 17 6 0 11 -6 11
-12 0 -9 4 -8 10 2 8 12 11 13 19 1 7 -11 9 -11 13 0 4 12 8 11 23 -1 10 -8
16 -10 12 -4 -4 7 2 11 18 11 14 0 23 -3 20 -7 -2 -3 2 -7 10 -7 8 0 12 4 9 9
-8 13 10 10 25 -5 11 -9 13 -9 7 1 -8 14 10 17 19 2 3 -5 12 -7 20 -4 8 4 12
10 9 15 -6 11 25 0 45 -15 11 -8 13 -8 7 2 -10 16 16 16 33 -1 11 -9 13 -9 7
1 -9 16 16 16 33 0 11 -10 13 -10 7 0 -4 7 -2 12 6 12 8 0 20 -6 27 -12 11
-10 13 -10 7 0 -5 8 0 12 14 12 12 0 19 -4 15 -9 -3 -5 -1 -13 5 -16 6 -4 9
-1 8 6 -2 6 3 14 11 17 9 3 11 0 6 -9 -6 -11 -5 -12 6 -2 17 17 32 17 23 1 -5
-8 -1 -8 10 1 15 13 19 13 27 0 6 -10 9 -10 9 -1 0 6 5 12 11 12 5 0 7 -6 3
-12 -6 -10 -4 -10 7 -1 17 17 32 17 23 1 -6 -10 -4 -10 7 -1 17 17 32 17 23 1
-5 -8 -1 -8 10 1 15 13 19 13 27 0 6 -10 9 -10 9 -1 0 6 5 12 11 12 5 0 7 -6
3 -12 -5 -8 -1 -8 10 1 15 13 19 13 27 0 5 -8 9 -9 9 -2 0 13 18 12 39 -1 10
-6 12 -5 7 2 -10 16 16 15 33 0 11 -10 13 -10 7 0 -9 16 16 16 33 0 11 -10 13
-10 7 0 -9 16 16 16 33 0 11 -10 13 -10 7 0 -5 8 0 12 14 12 17 0 21 -4 16
-17 -5 -15 -4 -15 9 1 15 20 15 20 30 0 13 -16 14 -16 9 -1 -3 9 -1 17 5 17 6
0 11 -6 11 -12 0 -9 4 -8 10 2 8 12 11 13 19 1 7 -11 9 -11 13 0 4 12 8 11 23
-1 10 -8 16 -10 12 -4 -4 7 2 11 18 11 14 0 23 -3 20 -7 -2 -3 2 -7 10 -7 8 0
12 4 9 9 -8 13 10 10 25 -5 11 -9 13 -9 7 1 -8 14 10 17 19 2 3 -5 12 -7 20
-4 8 4 12 10 9 15 -3 5 2 6 10 3 9 -3 13 -11 9 -18 -4 -6 1 -5 10 3 15 12 20
12 32 -5 11 -14 14 -15 9 -3 -4 12 1 17 20 17 14 0 26 -4 26 -9 0 -5 5 -9 11
-9 5 0 7 5 4 10 -4 7 3 9 19 6 14 -2 27 1 30 7 2 7 5 3 5 -8 1 -17 3 -18 11
-5 8 12 11 13 19 1 7 -11 9 -11 13 0 4 12 8 11 23 -1 11 -9 16 -10 11 -2 -4 6
-2 12 3 12 6 0 11 -6 11 -12 0 -9 3 -8 10 2 7 11 12 12 21 3 8 -8 19 -9 37 -2
19 7 27 6 38 -8 12 -15 13 -15 8 -2 -4 12 1 17 20 17 14 0 26 -4 26 -9 0 -5 5
-9 11 -9 5 0 7 5 4 10 -4 7 3 9 19 6 14 -2 27 1 30 7 2 7 5 3 5 -8 1 -17 3
-18 11 -5 8 12 11 13 19 1 7 -11 9 -11 13 0 4 12 8 11 23 -1 11 -9 16 -10 11
-2 -4 6 -2 12 3 12 6 0 11 -6 11 -12 0 -9 3 -8 10 2 7 11 12 12 21 3 13 -13
42 -6 33 8 -3 5 2 6 11 3 10 -4 14 -13 11 -23 -4 -11 -2 -10 9 3 15 20 15 20
30 0 13 -16 14 -16 9 -1 -3 9 -1 17 5 17 6 0 11 -6 11 -12 0 -9 4 -8 10 2 8
12 11 13 19 1 7 -11 9 -11 13 0 4 12 8 11 23 -1 10 -8 16 -10 12 -4 -4 7 2 12
18 11 14 0 23 -3 20 -7 -2 -3 2 -7 10 -7 8 0 12 4 9 9 -8 13 10 10 25 -5 11
-9 13 -9 7 1 -8 14 10 17 19 2 3 -5 12 -7 20 -4 8 4 12 10 9 15 -6 11 25 0 45
-15 11 -8 13 -8 7 2 -10 16 16 16 33 -1 11 -9 13 -9 7 1 -9 16 16 16 33 -1 11
-9 13 -9 7 1 -9 16 16 16 33 -1 11 -9 13 -9 7 1 -5 8 0 12 14 12 12 0 19 -4
15 -9 -3 -5 -1 -13 5 -16 6 -4 9 -1 8 6 -2 6 3 14 11 17 9 3 11 0 6 -9 -6 -11
-5 -12 6 -2 17 17 32 17 23 1 -5 -8 -1 -8 10 1 15 13 19 13 27 0 6 -10 9 -10
9 -1 0 6 5 12 11 12 5 0 7 -6 3 -12 -6 -10 -4 -10 7 0 7 6 17 12 22 12 4 0 5
-6 1 -12 -6 -10 -4 -10 7 -1 17 17 32 17 23 1 -5 -8 -1 -8 10 1 15 13 19 13
27 0 6 -10 9 -10 9 -1 0 6 5 12 11 12 5 0 7 -6 3 -12 -5 -8 -1 -8 10 1 15 13
19 13 27 0 5 -8 9 -9 9 -2 0 13 18 12 39 -1 10 -6 12 -5 7 2 -10 16 16 15 33
-1 11 -9 13 -9 7 1 -9 16 16 16 33 -1 11 -9 13 -9 7 1 -9 16 16 16 33 -1 11
-9 13 -9 7 1 -5 8 0 12 14 12 17 0 21 -4 16 -17 -6 -17 -5 -17 7 -1 13 16 15
16 32 0 18 -16 18 -16 6 1 -13 16 -2 25 13 10 9 -10 46 -11 40 -1 -3 4 9 6 25
4 17 -2 31 1 31 6 0 5 5 6 10 3 6 -4 17 -2 25 5 10 8 15 8 21 -1 5 -8 3 -9 -6
-4 -9 5 -11 4 -6 -4 4 -6 12 -9 17 -5 5 3 7 9 5 12 -2 4 7 12 20 19 15 7 22 7
18 1 -4 -6 -1 -8 7 -6 8 3 13 11 11 18 -3 11 0 11 12 0 12 -9 16 -9 16 -1 0 7
4 10 9 7 5 -3 14 1 21 9 7 8 16 12 21 9 5 -3 6 3 2 12 -4 11 -2 15 4 11 6 -4
14 0 17 9 3 9 11 12 18 8 7 -5 9 -2 5 8 -4 12 0 15 16 12 12 -2 17 -2 10 2 -7
3 -9 12 -6 20 5 13 7 13 14 2 7 -10 9 -9 9 5 0 10 4 15 10 12 6 -3 7 1 4 9 -4
11 0 16 11 16 9 0 13 5 10 10 -4 6 -1 17 5 25 6 8 9 19 5 24 -4 7 1 8 11 4 12
-4 15 -3 10 5 -4 7 -3 12 2 12 5 0 8 12 6 26 -2 18 2 24 11 20 8 -3 12 2 10
12 -1 9 -8 16 -16 14 -9 -2 -9 1 2 14 12 15 14 248 15 1593 1 1134 -2 1580
-10 1590 -8 11 -8 13 1 7 9 -5 11 -2 7 8 -3 9 -11 13 -18 9 -6 -3 -6 -1 2 8
14 16 16 33 2 24 -6 -4 -10 5 -10 19 0 14 -5 26 -11 26 -5 0 -7 5 -4 10 3 6 1
10 -5 10 -7 0 -10 5 -8 12 3 7 -5 21 -17 33 -20 19 -20 19 0 5 19 -14 19 -14
4 5 -9 11 -19 27 -22 35 -3 9 -6 10 -6 3 -1 -7 -6 -13 -12 -13 -5 0 -7 5 -4
10 3 6 1 10 -4 10 -6 0 -11 7 -11 16 0 8 -4 12 -10 9 -5 -3 -15 3 -22 15 -7
11 -21 20 -30 20 -10 0 -23 9 -30 20 -7 11 -18 20 -25 20 -7 0 -13 6 -13 13 0
8 -4 7 -10 -3 -9 -13 -10 -13 -10 0 0 12 -2 12 -9 2 -7 -11 -9 -10 -15 3 -3 9
-10 13 -16 10 -5 -3 -10 0 -10 7 0 9 -3 9 -10 -2 -5 -8 -10 -10 -10 -4 0 8
-759 11 -2665 11 -1727 0 -2662 -4 -2658 -10z m-147 -82 c-7 -8 -17 -15 -23
-15 -6 0 -2 7 9 15 25 19 30 19 14 0z m399 -262 c-13 -15 -12 -15 5 -6 12 6
31 7 48 2 16 -4 26 -4 23 0 -2 5 6 9 20 9 14 0 23 -4 20 -8 -2 -4 7 -5 20 -2
14 2 22 9 19 14 -4 6 6 2 22 -8 21 -14 26 -14 17 -3 -10 12 -8 15 7 15 10 0
17 -3 14 -7 -2 -4 3 -10 12 -13 8 -3 13 -2 10 3 -3 5 5 9 19 9 14 0 23 -4 20
-8 -2 -4 7 -5 20 -2 14 2 22 9 19 14 -4 6 6 2 22 -8 22 -14 26 -15 17 -3 -11
13 -10 15 5 14 9 0 22 -4 27 -7 16 -9 68 -7 90 5 19 9 19 9 5 -8 -13 -16 -13
-18 0 -10 8 5 29 8 48 7 21 -2 31 1 27 8 -3 5 -1 10 4 10 6 0 11 -5 11 -11 0
-6 8 -9 19 -6 10 2 26 0 36 -6 12 -6 16 -6 12 0 -4 6 4 11 18 11 14 0 23 -4
20 -8 -2 -4 7 -5 20 -2 14 2 22 9 19 14 -4 6 6 2 22 -8 21 -14 26 -14 17 -3
-10 12 -8 15 7 15 10 0 16 -4 14 -8 -3 -4 2 -8 11 -8 9 0 13 5 10 10 -3 6 -1
10 4 10 6 0 11 -4 11 -9 0 -12 130 -9 150 4 13 8 13 7 0 -10 -14 -17 -14 -18
4 -8 12 6 31 7 48 2 16 -4 26 -4 23 0 -2 5 6 9 20 9 14 0 23 -4 20 -8 -2 -4 7
-5 20 -2 14 2 22 9 19 14 -4 6 6 2 22 -8 21 -14 26 -14 17 -3 -10 12 -8 15 7
15 10 0 17 -3 14 -7 -2 -4 3 -10 12 -13 8 -3 13 -2 10 3 -3 5 5 9 19 9 14 0
23 -4 20 -8 -2 -4 7 -5 20 -2 14 2 22 9 19 14 -4 6 6 2 22 -8 22 -14 26 -15
17 -3 -11 13 -10 15 5 14 9 0 22 -4 27 -7 16 -9 68 -7 90 5 19 9 19 9 5 -8
-13 -16 -13 -18 0 -10 8 5 29 8 48 7 21 -2 31 1 27 8 -3 5 -1 10 4 10 6 0 11
-5 11 -11 0 -6 8 -9 19 -6 10 2 26 0 36 -6 12 -6 16 -6 12 0 -4 6 4 11 18 11
14 0 23 -4 20 -8 -2 -4 7 -5 20 -2 14 2 22 9 19 14 -4 6 6 2 22 -8 21 -14 26
-14 17 -3 -10 12 -8 15 7 15 10 0 16 -4 14 -8 -3 -4 2 -8 11 -8 9 0 13 5 10
10 -3 6 -1 10 4 10 6 0 11 -4 11 -9 0 -12 130 -9 150 4 13 8 13 7 0 -10 -13
-16 -13 -18 0 -10 8 5 29 8 48 7 21 -2 31 1 27 8 -3 5 -1 10 4 10 6 0 11 -5
11 -11 0 -6 8 -9 19 -6 10 2 26 0 36 -6 12 -6 16 -6 12 0 -4 6 4 11 18 11 14
0 23 -4 20 -8 -2 -4 7 -5 20 -2 14 2 22 9 19 14 -4 6 6 2 22 -8 21 -14 26 -14
17 -3 -10 12 -8 15 7 15 10 0 16 -4 14 -8 -3 -4 2 -8 11 -8 9 0 13 5 10 10 -3
6 -1 10 4 10 6 0 11 -4 11 -9 0 -5 16 -9 35 -9 19 0 32 4 29 9 -3 5 0 9 5 9 6
0 11 -5 11 -11 0 -6 8 -9 19 -6 10 2 26 0 36 -6 12 -6 16 -6 12 0 -4 6 4 11
18 11 14 0 23 -4 20 -8 -2 -4 7 -5 20 -2 14 2 22 9 19 14 -4 6 6 2 22 -8 21
-14 26 -14 17 -3 -10 12 -8 15 7 15 10 0 16 -4 14 -8 -3 -4 2 -8 11 -8 9 0 13
5 10 10 -3 6 -1 10 4 10 6 0 11 -4 11 -9 0 -5 16 -9 35 -9 19 0 32 4 29 9 -3
5 0 9 5 9 6 0 11 -5 11 -11 0 -6 8 -9 19 -6 10 2 26 0 36 -6 12 -6 16 -6 12 0
-4 6 4 11 18 11 14 0 23 -4 20 -8 -2 -4 7 -5 20 -2 14 2 22 9 19 14 -4 6 6 2
22 -8 21 -14 26 -14 17 -3 -10 12 -8 15 7 15 10 0 16 -4 14 -8 -3 -4 2 -8 11
-8 9 0 13 5 10 10 -3 6 -1 10 4 10 6 0 11 -4 11 -9 0 -5 16 -9 35 -9 19 0 32
4 29 9 -3 5 0 9 5 9 6 0 11 -5 11 -11 0 -6 8 -9 19 -6 10 2 26 0 36 -6 12 -6
16 -6 12 0 -4 6 4 11 18 11 14 0 23 -4 20 -8 -2 -4 7 -5 20 -2 14 2 22 9 19
14 -4 6 6 2 22 -8 21 -14 26 -14 17 -3 -10 12 -8 15 7 15 10 0 16 -4 14 -8 -3
-4 2 -8 11 -8 9 0 13 5 10 10 -3 6 -1 10 4 10 6 0 11 -4 11 -9 0 -12 130 -9
150 4 13 8 13 7 0 -10 -13 -16 -13 -18 0 -10 8 5 29 8 48 7 21 -2 31 1 27 8
-3 5 -1 10 4 10 6 0 11 -5 11 -11 0 -6 8 -9 19 -6 10 2 26 0 36 -6 12 -6 16
-6 12 0 -4 6 4 11 18 11 14 0 23 -4 20 -8 -2 -4 7 -5 20 -2 14 2 22 9 19 14
-4 6 6 2 22 -8 21 -14 26 -14 17 -3 -10 12 -8 15 7 15 10 0 16 -4 14 -8 -3 -4
2 -8 11 -8 9 0 13 5 10 10 -3 6 -1 10 4 10 6 0 11 -4 11 -9 0 -12 130 -9 150
4 13 8 13 7 0 -10 -14 -17 -14 -18 4 -8 12 6 31 7 48 2 16 -4 26 -4 23 0 -2 5
6 9 20 9 14 0 23 -4 20 -8 -2 -4 7 -5 20 -2 14 2 22 9 19 14 -4 6 6 2 22 -8
21 -14 26 -14 17 -3 -10 12 -8 15 7 15 10 0 17 -3 14 -7 -2 -4 3 -10 12 -13 8
-3 13 -2 10 3 -3 5 5 9 19 9 14 0 23 -4 20 -8 -2 -4 7 -5 20 -2 14 2 22 9 19
14 -4 6 6 2 22 -8 22 -14 26 -15 17 -3 -11 13 -10 15 5 14 9 0 22 -4 27 -7 16
-9 68 -7 90 5 19 9 19 9 5 -8 -13 -16 -13 -18 0 -10 8 5 29 8 48 7 21 -2 31 1
27 8 -3 5 -1 10 4 10 6 0 11 -5 11 -11 0 -6 8 -9 19 -6 10 2 26 0 36 -6 12 -6
16 -6 12 0 -4 6 4 11 18 11 14 0 23 -4 20 -8 -2 -4 7 -5 20 -2 14 2 22 9 19
14 -4 6 6 2 22 -8 21 -14 26 -14 17 -3 -10 12 -8 15 7 15 10 0 16 -4 14 -8 -3
-4 2 -8 11 -8 9 0 13 4 10 10 -3 6 -1 10 4 10 6 0 11 -4 11 -9 0 -12 130 -9
150 4 13 8 13 7 0 -10 -14 -17 -14 -18 4 -8 12 6 31 7 48 2 16 -4 26 -4 23 0
-2 5 6 9 20 9 14 0 22 -5 18 -11 -3 -5 -2 -7 4 -4 18 11 93 16 93 6 0 -6 -5
-7 -12 -3 -7 4 -8 3 -4 -5 5 -8 12 -9 19 -2 8 6 16 4 25 -5 7 -8 9 -14 5 -14
-4 0 0 -5 10 -11 13 -8 15 -14 7 -29 -7 -13 -7 -21 0 -25 5 -3 10 -11 10 -16
0 -6 -6 -7 -12 -3 -10 6 -10 4 0 -8 9 -12 10 -18 2 -23 -8 -5 -9 -10 -1 -18 6
-6 7 -16 1 -28 -7 -11 -7 -20 0 -24 5 -3 10 -11 10 -16 0 -6 -5 -7 -11 -3 -8
5 -8 1 0 -14 14 -27 14 -35 -1 -26 -10 5 -10 4 -1 -6 9 -9 9 -17 2 -26 -7 -8
-7 -14 1 -19 7 -4 7 -13 -1 -27 -8 -15 -8 -19 0 -14 13 8 10 -21 -3 -43 -7
-11 -5 -13 7 -8 11 4 14 2 10 -9 -3 -7 -10 -14 -17 -14 -7 0 -7 -3 -1 -8 13
-9 15 -52 3 -52 -5 0 -6 -5 -3 -10 4 -6 12 -8 18 -4 7 3 3 -2 -7 -10 -13 -10
-15 -16 -7 -16 10 0 11 -3 2 -14 -8 -10 -9 -16 -1 -21 7 -4 7 -12 0 -26 -9
-15 -7 -19 7 -20 16 -1 16 -2 -1 -6 -14 -4 -15 -7 -6 -13 9 -6 9 -13 1 -28 -7
-14 -8 -23 -1 -27 5 -3 10 -11 10 -16 0 -6 -5 -7 -11 -3 -8 5 -8 1 0 -14 14
-27 14 -35 -1 -26 -10 5 -10 4 -1 -6 9 -9 9 -17 2 -26 -7 -8 -7 -14 1 -19 7
-4 7 -12 0 -25 -7 -13 -7 -21 0 -25 5 -3 10 -11 10 -16 0 -6 -5 -7 -11 -3 -8
5 -8 1 0 -14 14 -27 14 -35 -1 -26 -10 5 -10 4 -1 -6 9 -9 9 -17 2 -26 -7 -8
-7 -14 1 -19 7 -4 7 -13 -1 -27 -8 -15 -8 -19 0 -14 13 8 10 -21 -3 -43 -7
-11 -5 -13 7 -8 11 4 14 2 10 -9 -3 -7 -10 -14 -17 -14 -7 0 -7 -3 -1 -8 13
-9 15 -52 3 -52 -5 0 -6 -5 -3 -10 4 -6 12 -8 18 -4 7 3 3 -2 -7 -10 -13 -10
-15 -16 -7 -16 10 0 11 -3 2 -14 -8 -10 -9 -16 -1 -21 7 -4 7 -12 0 -26 -9
-15 -7 -19 7 -20 16 -1 16 -2 -1 -6 -14 -4 -15 -7 -6 -13 9 -6 9 -13 1 -28 -7
-14 -8 -23 -1 -27 5 -3 10 -11 10 -16 0 -6 -5 -7 -11 -3 -8 5 -8 1 0 -14 14
-27 14 -35 -1 -26 -10 5 -10 4 -1 -6 9 -9 9 -17 2 -26 -7 -8 -7 -14 1 -19 7
-4 7 -12 0 -25 -7 -13 -7 -21 0 -25 5 -3 10 -11 10 -16 0 -6 -5 -7 -11 -3 -8
5 -8 1 0 -14 14 -27 14 -35 -1 -26 -10 5 -10 4 -1 -6 9 -9 9 -17 2 -26 -7 -8
-7 -14 1 -19 7 -4 7 -13 -1 -27 -8 -15 -8 -19 0 -14 13 8 10 -21 -3 -43 -7
-11 -5 -13 7 -8 11 4 14 2 10 -9 -3 -7 -10 -14 -17 -14 -7 0 -7 -3 -1 -8 13
-9 15 -52 3 -52 -5 0 -6 -5 -3 -10 4 -6 12 -8 18 -4 7 3 3 -2 -7 -10 -13 -10
-15 -16 -7 -16 10 0 11 -3 2 -14 -8 -10 -9 -16 -1 -21 7 -4 7 -12 0 -26 -9
-15 -7 -19 7 -20 16 -1 16 -2 -1 -6 -14 -4 -15 -7 -6 -13 9 -6 9 -13 1 -28 -7
-14 -8 -23 -1 -27 5 -3 10 -11 10 -16 0 -6 -5 -7 -11 -3 -8 5 -8 1 0 -14 14
-27 14 -35 -1 -26 -10 5 -10 4 -1 -6 9 -9 9 -17 2 -26 -7 -8 -7 -14 1 -19 7
-4 7 -12 0 -25 -7 -13 -7 -21 0 -25 5 -3 10 -11 10 -16 0 -6 -5 -7 -11 -3 -8
5 -8 1 0 -14 14 -27 14 -35 -1 -26 -10 5 -10 4 -1 -6 9 -9 9 -17 2 -26 -7 -8
-7 -14 1 -19 7 -4 7 -13 -1 -27 -8 -15 -8 -19 0 -14 13 8 10 -21 -3 -43 -7
-11 -5 -13 7 -8 11 4 14 2 10 -9 -3 -7 -10 -14 -17 -14 -7 0 -7 -3 -1 -8 13
-9 15 -52 3 -52 -5 0 -6 -5 -3 -10 4 -6 12 -8 18 -4 7 3 3 -2 -7 -10 -13 -10
-15 -16 -7 -16 10 0 11 -3 2 -14 -8 -10 -9 -16 -1 -21 7 -4 7 -12 0 -26 -9
-15 -7 -19 7 -20 16 -1 16 -2 -1 -6 -14 -4 -15 -7 -6 -13 9 -6 9 -13 1 -28 -7
-14 -8 -23 -1 -27 5 -3 10 -11 10 -16 0 -6 -5 -7 -11 -3 -8 5 -8 1 0 -14 14
-27 14 -35 -1 -26 -10 5 -10 4 -1 -6 9 -9 9 -17 2 -26 -7 -8 -7 -14 1 -19 7
-4 7 -12 0 -25 -7 -13 -7 -21 0 -25 5 -3 10 -11 10 -16 0 -6 -5 -7 -11 -3 -8
5 -8 1 0 -14 14 -27 14 -35 -1 -26 -10 5 -10 4 -1 -6 9 -9 9 -17 2 -26 -7 -8
-7 -14 1 -19 7 -4 7 -13 -1 -27 -8 -15 -8 -19 0 -14 13 8 10 -21 -3 -43 -7
-11 -5 -13 7 -8 11 4 14 2 10 -9 -3 -7 -10 -14 -17 -14 -7 0 -7 -3 -1 -8 13
-9 15 -52 3 -52 -5 0 -6 -5 -3 -10 4 -6 12 -8 18 -4 7 3 3 -2 -7 -10 -13 -10
-15 -16 -7 -16 11 0 11 -3 0 -17 -12 -15 -12 -16 1 -8 8 4 4 -5 -10 -21 -14
-15 -17 -22 -7 -15 12 9 17 10 17 2 0 -6 -13 -14 -30 -17 -16 -4 -27 -10 -24
-15 3 -5 0 -9 -5 -9 -6 0 -11 4 -11 10 0 11 -28 9 -47 -3 -8 -5 -13 -3 -13 4
0 6 -8 1 -18 -11 -14 -18 -19 -19 -19 -7 0 9 4 14 9 11 4 -3 8 -1 8 5 0 5 -9
9 -20 8 -13 -1 -19 -6 -15 -15 3 -8 0 -10 -6 -6 -6 4 -15 1 -19 -6 -5 -8 -9
-7 -13 5 -4 9 -3 13 2 10 5 -3 12 -1 15 4 4 5 -2 8 -11 6 -10 -2 -22 -4 -26
-4 -5 -1 -6 -5 -3 -9 3 -5 -1 -9 -8 -9 -8 0 -12 5 -10 12 3 6 -4 11 -15 11
-16 0 -18 -3 -8 -15 10 -12 9 -13 -10 -3 -18 10 -24 9 -31 -5 -9 -14 -10 -14
-16 5 -7 20 -46 28 -46 9 0 -5 8 -6 18 -2 14 5 15 4 4 -7 -11 -11 -16 -10 -28
6 -12 17 -14 18 -14 3 0 -9 -4 -17 -10 -17 -5 0 -7 6 -4 13 3 8 -3 13 -15 13
-13 0 -17 -4 -11 -11 6 -8 -3 -11 -32 -10 -23 1 -44 7 -46 13 -2 8 -10 4 -21
-9 -14 -18 -18 -19 -18 -6 0 9 4 14 9 11 4 -3 8 -1 8 5 0 5 -9 9 -20 8 -11 -1
-19 -6 -17 -12 3 -5 -10 -10 -29 -10 -18 0 -32 4 -31 10 1 5 -11 10 -28 10
-37 1 -56 -5 -50 -14 2 -4 -2 -8 -9 -8 -8 0 -12 5 -10 12 3 6 -4 11 -15 11
-16 0 -18 -3 -8 -15 10 -12 9 -13 -11 -2 -19 10 -23 9 -29 -5 -5 -14 -8 -13
-19 7 -7 13 -13 18 -14 12 0 -14 -30 -18 -30 -5 0 11 -37 9 -47 -3 -5 -4 -2
-5 6 0 10 6 12 4 6 -5 -7 -11 -10 -11 -19 2 -8 14 -11 14 -26 -5 -14 -16 -17
-17 -17 -4 0 9 4 14 9 11 4 -3 8 -1 8 5 0 5 -9 9 -20 8 -12 -1 -18 -7 -16 -13
5 -14 -34 -10 -43 4 -8 12 -41 11 -41 -1 0 -5 8 -6 18 -2 12 4 14 3 6 -5 -12
-12 -44 -3 -44 12 0 6 -8 0 -18 -12 -14 -18 -19 -19 -19 -7 0 9 4 14 9 11 4
-3 8 -1 8 5 0 5 -9 9 -20 8 -11 -1 -19 -6 -16 -12 6 -17 -43 -12 -54 5 -8 13
-10 12 -10 -2 0 -10 -4 -18 -10 -18 -5 0 -7 6 -4 13 3 8 -3 13 -15 13 -13 0
-17 -4 -11 -11 6 -8 -3 -11 -32 -10 -23 1 -44 7 -46 13 -2 8 -10 4 -21 -9 -14
-18 -18 -19 -18 -6 0 9 4 14 9 11 4 -3 8 -1 8 5 0 5 -9 9 -20 8 -11 -1 -19 -6
-17 -12 3 -5 -10 -10 -29 -10 -18 0 -32 4 -31 9 1 6 -13 11 -30 11 -18 1 -33
-2 -33 -7 0 -5 12 -6 26 -4 15 3 24 2 20 -1 -14 -14 -42 -12 -53 4 -12 16 -13
16 -13 0 0 -9 -4 -17 -10 -17 -5 0 -7 6 -4 13 3 8 -3 13 -15 13 -13 0 -17 -4
-11 -11 6 -8 -3 -11 -32 -10 -23 1 -44 7 -46 13 -2 8 -10 4 -21 -9 -14 -18
-18 -19 -18 -6 0 9 4 14 9 11 4 -3 8 -1 8 5 0 5 -9 9 -20 8 -11 -1 -19 -6 -17
-12 3 -5 -10 -10 -29 -10 -18 0 -32 4 -31 10 1 5 -11 10 -28 10 -37 1 -56 -5
-50 -14 2 -4 -2 -8 -9 -8 -8 0 -12 5 -10 12 3 6 -4 11 -15 11 -16 0 -18 -3 -8
-15 10 -12 9 -13 -10 -3 -18 10 -24 9 -31 -5 -9 -14 -10 -14 -16 5 -7 20 -46
28 -46 9 0 -5 8 -6 18 -2 14 5 15 4 4 -7 -11 -11 -16 -10 -28 6 -12 17 -14 18
-14 3 0 -9 -4 -17 -10 -17 -5 0 -7 6 -4 13 3 8 -3 13 -15 13 -13 0 -17 -4 -11
-11 6 -8 -3 -11 -32 -10 -23 1 -44 7 -46 13 -2 8 -10 4 -21 -9 -14 -18 -18
-19 -18 -6 0 9 4 14 9 11 4 -3 8 -1 8 5 0 5 -9 9 -20 8 -11 -1 -19 -6 -17 -12
3 -5 -10 -10 -29 -10 -18 0 -32 4 -31 10 1 5 -11 10 -28 10 -37 1 -56 -5 -50
-14 2 -4 -2 -8 -9 -8 -8 0 -12 5 -10 12 3 6 -4 11 -15 11 -16 0 -18 -3 -8 -15
10 -12 9 -13 -10 -3 -18 10 -24 9 -31 -5 -9 -14 -10 -14 -16 5 -5 16 -13 21
-29 18 -12 -3 -26 -5 -30 -5 -5 -1 -6 -5 -3 -9 3 -5 -1 -9 -8 -9 -8 0 -12 5
-10 12 3 6 -4 11 -15 11 -16 0 -18 -3 -8 -15 10 -12 9 -13 -10 -3 -18 10 -24
9 -31 -5 -9 -14 -10 -14 -16 5 -7 20 -46 28 -46 9 0 -5 8 -6 18 -2 14 5 15 4
4 -7 -11 -11 -16 -10 -28 6 -12 17 -14 18 -14 3 0 -9 -4 -17 -10 -17 -5 0 -7
6 -4 13 3 8 -3 13 -15 13 -13 0 -17 -4 -11 -11 6 -8 -3 -11 -32 -10 -23 1 -44
7 -46 13 -2 8 -10 4 -21 -9 -14 -18 -18 -19 -18 -6 0 9 4 14 9 11 4 -3 8 -1 8
5 0 5 -9 9 -20 8 -11 -1 -19 -6 -17 -12 3 -5 -10 -10 -29 -10 -18 0 -32 4 -31
10 1 5 -11 10 -28 10 -37 1 -56 -5 -50 -14 2 -4 -2 -8 -9 -8 -8 0 -12 5 -10
12 3 6 -4 11 -15 11 -16 0 -18 -3 -8 -15 10 -12 9 -13 -10 -3 -18 10 -24 9
-31 -5 -9 -14 -10 -14 -16 5 -7 20 -46 28 -46 9 0 -5 8 -6 17 -2 15 5 16 4 5
-7 -11 -11 -16 -10 -28 6 -12 17 -14 18 -14 3 0 -9 -4 -17 -10 -17 -5 0 -7 6
-4 13 3 8 -3 13 -15 13 -13 0 -17 -4 -11 -11 6 -8 -3 -11 -32 -10 -23 1 -44 7
-46 13 -2 8 -10 4 -21 -9 -14 -18 -18 -19 -18 -6 0 9 4 14 9 11 4 -3 8 -1 8 5
0 5 -9 9 -20 8 -11 -1 -19 -6 -17 -12 3 -5 -10 -10 -29 -10 -18 0 -32 4 -31 9
1 6 -13 11 -30 11 -18 1 -33 -2 -33 -7 0 -5 12 -6 26 -4 15 3 24 2 20 -1 -14
-14 -42 -12 -54 4 -11 16 -12 16 -12 0 0 -9 -4 -17 -10 -17 -5 0 -7 6 -4 13 3
8 -3 13 -15 13 -13 0 -17 -4 -11 -11 6 -8 -3 -11 -32 -10 -23 1 -44 7 -46 13
-2 8 -10 4 -21 -9 -14 -18 -18 -19 -18 -6 0 9 4 14 9 11 4 -3 8 -1 8 5 0 5 -9
9 -20 8 -11 -1 -19 -6 -17 -12 3 -5 -10 -10 -29 -10 -18 0 -30 3 -28 7 8 13
-18 20 -29 8 -9 -10 -9 -11 2 -5 9 5 12 4 8 -3 -7 -11 -47 -5 -47 7 0 10 -38
7 -47 -4 -5 -4 -2 -5 6 0 10 6 12 4 6 -5 -7 -11 -10 -11 -19 2 -8 14 -11 14
-26 -5 -14 -16 -17 -17 -17 -4 0 9 4 14 9 11 4 -3 8 -1 8 5 0 5 -9 9 -20 8
-12 -1 -18 -7 -16 -13 5 -14 -34 -10 -43 4 -8 12 -41 11 -41 -1 0 -5 8 -6 18
-2 12 4 14 3 6 -5 -12 -12 -44 -3 -44 12 0 6 -8 0 -18 -12 -14 -18 -19 -19
-19 -7 0 9 4 14 9 11 4 -3 8 -1 8 5 0 5 -9 9 -20 8 -13 -1 -19 -6 -15 -15 3
-8 0 -10 -6 -6 -6 4 -15 1 -19 -6 -5 -8 -9 -7 -13 5 -4 9 -3 13 2 10 5 -3 12
-1 15 4 4 5 -2 8 -11 6 -10 -2 -22 -4 -26 -4 -5 -1 -6 -5 -3 -9 3 -5 -1 -9 -8
-9 -8 0 -12 5 -10 12 3 6 -4 11 -15 11 -16 0 -18 -3 -8 -15 10 -12 9 -13 -10
-3 -18 10 -24 9 -31 -5 -9 -14 -10 -14 -16 5 -7 20 -46 28 -46 9 0 -5 8 -6 18
-2 14 5 15 4 4 -7 -11 -11 -16 -10 -28 6 -12 17 -14 18 -14 3 0 -9 -4 -17 -10
-17 -5 0 -7 6 -4 13 3 8 -3 13 -15 13 -13 0 -17 -4 -11 -11 6 -8 -3 -11 -32
-10 -23 1 -44 7 -46 13 -2 8 -10 4 -21 -9 -14 -18 -18 -19 -18 -6 0 9 4 14 9
11 4 -3 8 -1 8 5 0 5 -9 9 -20 8 -11 -1 -19 -6 -17 -12 3 -5 -10 -10 -29 -10
-18 0 -32 4 -31 10 1 5 -11 10 -28 10 -37 1 -56 -5 -50 -14 2 -4 -2 -8 -9 -8
-8 0 -12 5 -10 12 3 6 -4 11 -15 11 -16 0 -18 -3 -8 -15 10 -12 9 -13 -11 -2
-19 10 -23 9 -29 -5 -5 -14 -8 -13 -19 7 -7 13 -13 18 -14 12 0 -14 -30 -18
-30 -5 0 11 -37 9 -47 -3 -5 -4 -2 -5 6 0 10 6 12 4 6 -5 -7 -11 -10 -11 -19
2 -8 14 -11 14 -26 -5 -14 -16 -17 -17 -17 -4 0 9 4 14 9 11 4 -3 8 -1 8 5 0
5 -9 9 -20 8 -12 -1 -18 -7 -16 -13 5 -14 -34 -10 -43 4 -8 12 -41 11 -41 -1
0 -5 8 -6 18 -2 12 4 14 3 6 -5 -12 -12 -44 -3 -44 12 0 6 -8 0 -18 -12 -14
-18 -19 -19 -19 -7 0 9 4 14 9 11 4 -3 8 -1 8 5 0 5 -9 9 -20 8 -11 -1 -19 -6
-16 -12 6 -17 -43 -12 -54 5 -8 13 -10 12 -10 -2 0 -10 -4 -18 -10 -18 -5 0
-7 6 -4 13 3 8 -3 13 -15 13 -13 0 -17 -4 -11 -11 6 -7 -3 -10 -26 -10 -20 0
-39 6 -44 15 -8 13 -10 12 -10 -3 0 -10 -5 -15 -10 -12 -6 4 -8 10 -6 13 2 4
-12 7 -32 7 -30 0 -37 4 -35 19 1 13 -2 15 -10 7 -6 -6 -16 -11 -22 -11 -5 0
-3 5 5 10 13 9 13 11 0 20 -13 9 -13 10 0 10 12 0 12 2 2 9 -17 11 -17 21 0
32 11 7 11 9 -1 9 -11 0 -11 3 0 17 10 11 10 14 1 9 -14 -8 -12 19 2 43 7 11
5 13 -7 8 -16 -6 -15 -4 0 20 14 21 15 25 3 18 -13 -7 -13 -6 -2 7 10 12 10
17 1 20 -9 3 -9 9 1 27 8 15 8 21 1 17 -13 -8 -10 21 3 43 7 11 5 13 -7 8 -16
-6 -15 -4 0 20 14 21 15 25 3 18 -13 -7 -13 -6 -2 7 10 13 10 17 0 20 -10 4
-10 8 1 21 7 10 9 17 4 17 -5 0 -9 9 -10 20 -1 12 3 18 9 14 7 -4 7 -1 0 12
-15 28 -15 36 0 45 11 7 11 9 -1 9 -10 0 -11 3 -2 14 8 10 9 16 1 21 -5 3 -10
11 -10 16 0 6 5 7 12 3 7 -4 8 -3 4 4 -13 22 -15 52 -3 52 8 0 8 3 -2 9 -9 6
-10 10 -2 16 9 5 9 10 1 20 -8 10 -8 15 0 20 8 5 8 11 -1 21 -9 11 -8 14 2 14
9 0 10 3 4 8 -15 11 -19 46 -4 36 8 -4 10 -3 5 4 -13 22 -15 52 -3 52 8 0 8 3
-2 9 -9 6 -10 11 -2 15 7 5 7 13 -2 28 -10 17 -9 22 2 26 11 4 11 6 0 13 -12
8 -11 11 1 19 12 8 12 10 1 10 -10 0 -11 3 -2 14 9 11 9 16 0 21 -8 6 -7 10 2
16 10 6 10 9 2 9 -12 0 -10 30 3 52 4 7 3 8 -4 4 -14 -8 -12 20 2 43 7 11 5
13 -7 8 -16 -6 -15 -4 0 20 14 21 15 25 3 18 -13 -7 -13 -6 -2 7 10 12 10 17
1 20 -9 3 -9 9 1 27 8 15 8 21 1 17 -13 -8 -10 21 3 43 7 11 5 13 -7 8 -16 -6
-15 -4 0 20 14 21 15 25 3 18 -13 -8 -13 -7 -1 8 9 11 9 17 2 17 -13 0 -10 42
4 52 6 5 5 8 -4 8 -10 0 -11 3 -2 14 8 10 9 16 1 21 -5 3 -10 11 -10 16 0 6 5
7 12 3 7 -5 8 -3 2 7 -12 19 -12 32 0 48 8 11 8 13 -1 7 -7 -4 -13 -2 -13 3 0
6 6 11 13 11 7 0 8 3 2 8 -15 10 -19 46 -5 37 9 -5 9 -2 2 11 -15 28 -15 36 0
45 11 7 11 9 -1 9 -10 0 -11 3 -2 14 8 10 9 16 1 21 -5 3 -10 11 -10 16 0 6 5
7 12 3 7 -5 8 -3 2 7 -12 19 -12 32 0 48 8 11 8 13 -1 7 -7 -4 -13 -2 -13 3 0
6 6 11 13 11 7 0 8 3 2 8 -15 10 -19 46 -5 37 9 -5 9 -2 2 11 -15 28 -15 36 0
45 11 7 11 9 -1 9 -10 0 -11 3 -2 14 8 10 9 16 1 21 -6 3 -8 11 -5 16 4 5 0 9
-7 10 -7 0 -4 4 7 9 11 5 14 9 6 9 -10 1 -11 4 -2 15 9 10 9 16 1 21 -8 5 -7
11 2 23 10 12 10 14 0 8 -14 -8 -12 19 2 43 7 11 5 13 -7 8 -16 -6 -15 -4 0
20 14 21 15 25 3 18 -13 -7 -13 -6 -2 7 10 12 10 17 1 20 -9 3 -9 9 1 27 8 15
8 21 1 17 -13 -8 -10 21 3 43 7 11 5 13 -7 8 -16 -6 -15 -4 0 20 14 21 15 25
3 18 -13 -7 -13 -6 -2 7 10 13 10 17 0 20 -10 4 -10 8 1 21 7 10 9 17 4 17 -5
0 -9 9 -10 20 -1 12 3 18 9 14 7 -4 7 -1 0 12 -15 28 -15 36 0 45 11 7 11 9
-1 9 -10 0 -11 3 -2 14 8 10 9 16 1 21 -5 3 -10 11 -10 16 0 6 5 7 12 3 7 -4
8 -3 4 4 -13 22 -15 52 -3 52 8 0 8 3 -2 9 -9 6 -10 10 -2 16 9 5 9 10 1 20
-8 10 -8 15 0 20 8 5 8 11 -1 21 -9 11 -8 14 2 14 9 0 10 3 4 8 -15 11 -19 46
-4 36 8 -4 10 -3 5 4 -13 22 -15 52 -3 52 8 0 8 3 -2 9 -9 6 -10 11 -2 15 7 5
7 13 -2 27 -10 16 -9 21 2 28 11 7 11 9 0 14 -12 4 -11 7 1 16 12 8 12 11 1
11 -10 0 -11 3 -2 14 9 11 9 16 0 21 -8 6 -7 10 2 16 10 6 10 9 2 9 -12 0 -10
30 3 52 4 7 3 8 -4 4 -14 -8 -12 20 2 43 7 11 5 13 -7 8 -16 -6 -16 -5 -1 18
12 18 13 25 4 25 -9 0 -9 4 1 17 8 9 9 14 2 10 -7 -5 -9 0 -6 13 9 35 25 40
135 43 42 1 80 5 84 10 14 14 16 7 3 -10z m555 -3205 c-3 -5 -9 -6 -14 -3 -4
3 -10 0 -12 -7 -3 -8 -6 -7 -10 3 -4 11 1 15 17 15 13 0 21 -4 19 -8z m1600 0
c-3 -5 -9 -6 -14 -3 -4 3 -10 0 -12 -7 -3 -8 -6 -7 -10 3 -4 11 1 15 17 15 13
0 21 -4 19 -8z m459 -5 c-3 -7 -6 -13 -8 -13 -2 0 -5 6 -8 13 -3 8 1 14 8 14
7 0 11 -6 8 -14z m181 5 c-3 -5 -9 -6 -14 -3 -4 3 -10 0 -12 -7 -3 -8 -6 -7
-10 3 -4 11 1 15 17 15 13 0 21 -4 19 -8z m480 0 c-3 -5 -9 -6 -14 -3 -4 3
-10 0 -12 -7 -3 -8 -6 -7 -10 3 -4 11 1 15 17 15 13 0 21 -4 19 -8z m1120 0
c-3 -5 -9 -6 -14 -3 -4 3 -10 0 -12 -7 -3 -8 -6 -7 -10 3 -4 11 1 15 17 15 13
0 21 -4 19 -8z m580 0 c-3 -4 -9 -8 -15 -8 -5 0 -9 4 -9 8 0 5 7 9 15 9 8 0
12 -4 9 -9z m236 -274 c0 -8 -19 -13 -24 -6 -3 5 1 9 9 9 8 0 15 -2 15 -3z"/>
<path d="M2435 4430 c-3 -6 -10 -8 -15 -5 -5 3 -11 1 -15 -5 -4 -6 -11 -8 -16
-5 -5 4 -9 -2 -10 -12 0 -10 -3 -13 -6 -5 -6 17 -23 15 -23 -2 0 -8 -6 -17
-12 -20 -7 -3 -3 -3 10 0 18 4 22 1 22 -16 0 -12 5 -18 10 -15 6 3 10 0 10 -9
0 -8 16 -24 35 -36 19 -12 34 -24 34 -28 -3 -20 2 -32 11 -27 6 4 7 -1 3 -12
-3 -10 -2 -15 2 -11 5 5 13 -2 20 -15 6 -12 18 -21 25 -19 11 3 11 0 1 -12
-11 -13 -9 -15 9 -11 16 3 20 0 16 -11 -3 -8 3 -23 12 -32 10 -10 16 -24 14
-30 -2 -7 1 -19 8 -26 6 -8 7 -17 3 -19 -5 -3 -8 -26 -8 -51 1 -25 -1 -44 -4
-42 -3 2 -14 -5 -23 -16 -10 -10 -15 -18 -10 -18 4 0 -1 -5 -11 -11 -10 -6
-14 -15 -10 -22 5 -9 3 -8 -8 0 -13 11 -18 9 -29 -12 -9 -16 -17 -22 -24 -16
-12 10 -58 7 -77 -5 -8 -4 -9 -3 -5 5 5 8 0 10 -18 7 -24 -4 -25 -3 -14 17 10
20 10 21 -6 8 -14 -12 -19 -11 -32 5 -9 10 -12 12 -8 4 7 -13 5 -13 -9 -1 -9
7 -14 17 -11 22 5 8 -10 13 -29 10 -5 -1 -6 3 -2 9 3 5 0 10 -7 10 -9 0 -9 3
2 10 10 6 11 10 3 10 -7 0 -15 -1 -18 -2 -9 -6 -34 38 -35 62 0 20 -2 22 -10
10 -9 -13 -14 -7 -11 13 1 6 -14 11 -31 8 -4 0 -5 6 -2 14 4 9 -2 18 -17 24
-19 8 -20 10 -6 10 10 1 16 5 12 11 -3 5 -12 7 -19 4 -9 -3 -13 1 -13 12 1 9
-4 19 -12 22 -9 3 -11 0 -7 -9 4 -8 0 -5 -10 6 -14 17 -16 17 -11 3 5 -13 1
-18 -11 -18 -14 0 -14 -2 -3 -9 12 -7 10 -15 -6 -42 -11 -19 -18 -40 -15 -48
2 -8 0 -11 -6 -7 -6 4 -8 -2 -5 -14 4 -13 -1 -26 -13 -35 -18 -15 -18 -15 1
-8 18 6 19 5 5 -12 -8 -10 -10 -16 -4 -12 7 4 14 1 17 -7 4 -10 -1 -12 -16 -9
-21 5 -21 5 -3 -9 13 -11 16 -17 7 -22 -6 -4 -9 -12 -5 -17 3 -5 10 -6 16 -3
7 4 8 2 4 -4 -4 -6 -12 -10 -19 -8 -7 1 -9 1 -4 -1 4 -3 4 -10 1 -15 -4 -7 -2
-8 4 -4 8 5 12 -1 12 -14 0 -14 -4 -19 -12 -15 -7 4 -5 0 5 -8 14 -11 15 -16
5 -20 -9 -4 -10 -6 -1 -6 7 -1 10 -8 6 -18 -5 -12 -3 -14 8 -8 11 7 12 6 2 -6
-9 -11 -8 -18 1 -31 7 -10 17 -14 22 -10 4 4 2 -2 -6 -12 -10 -13 -10 -17 -2
-12 7 4 12 2 12 -4 0 -6 5 -8 13 -4 7 5 6 0 -3 -11 -9 -11 -10 -16 -2 -11 8 5
12 1 12 -11 0 -10 9 -25 19 -33 11 -7 18 -17 15 -22 -3 -4 1 -8 9 -8 18 0 28
-24 20 -47 -5 -16 -4 -16 8 -3 8 8 13 14 12 12 -3 -8 32 -42 44 -42 6 0 15 -9
18 -20 4 -11 11 -17 17 -14 6 4 16 1 22 -7 6 -8 20 -21 31 -29 20 -14 20 -14
2 7 -14 16 -15 23 -6 29 7 4 10 3 6 -3 -9 -15 26 -40 56 -39 18 1 23 -2 17
-10 -7 -7 0 -11 23 -12 77 -4 113 -8 126 -17 9 -5 16 -5 18 2 2 6 12 9 22 6
11 -3 29 1 41 7 12 7 20 8 17 2 -4 -5 4 -7 18 -5 16 4 22 10 18 22 -4 14 -3
14 6 1 5 -8 16 -15 23 -16 7 0 23 -2 35 -2 13 -1 22 -5 22 -9 -3 -20 2 -34 11
-28 6 3 7 -1 4 -9 -4 -11 0 -16 12 -16 16 0 17 -2 4 -10 -13 -9 -13 -10 0 -11
8 -1 17 -1 20 -1 3 0 14 -12 24 -26 l20 -27 -25 19 c-15 13 -13 9 6 -11 17
-17 33 -29 38 -26 4 2 7 -2 7 -9 0 -7 10 -19 21 -27 18 -10 19 -15 8 -22 -10
-6 -8 -9 11 -10 14 0 19 -3 13 -6 -10 -3 -9 -8 2 -20 8 -8 12 -19 9 -25 -4 -7
-2 -8 5 -4 6 4 8 12 5 18 -4 7 -2 8 4 4 7 -4 12 -19 13 -34 0 -24 1 -25 9 -7
8 19 9 19 9 -3 1 -15 5 -21 13 -16 7 5 9 2 5 -9 -4 -11 -2 -14 7 -11 8 3 17 0
22 -7 4 -8 3 -10 -4 -5 -7 4 -12 2 -12 -3 0 -6 9 -11 21 -11 11 0 17 -4 14
-10 -3 -5 6 -22 20 -36 22 -22 26 -32 20 -61 -4 -22 -10 -31 -18 -26 -7 4 -6
0 2 -10 12 -15 12 -17 -1 -12 -16 6 -18 -4 -18 -68 1 -21 -3 -36 -8 -33 -5 3
-9 0 -10 -7 0 -7 -3 -24 -5 -39 -2 -15 0 -25 5 -22 5 3 7 12 4 19 -3 8 3 19
12 27 13 11 14 11 7 -2 -13 -22 -14 -54 -1 -62 8 -6 7 -8 -1 -8 -7 0 -10 -7
-6 -17 4 -11 3 -14 -6 -9 -7 5 -10 15 -6 25 5 12 4 13 -6 4 -9 -9 -9 -16 -1
-26 7 -8 8 -18 4 -22 -4 -5 1 -5 11 -2 12 5 16 3 11 -5 -11 -18 -11 -57 0 -51
5 4 7 -1 3 -10 -4 -11 -1 -17 9 -17 8 0 12 -4 9 -10 -3 -6 -1 -10 6 -10 8 0 8
-4 -1 -15 -11 -14 -7 -19 12 -16 4 0 5 -6 2 -14 -4 -9 0 -15 9 -15 11 0 13 -6
9 -22 -3 -13 -1 -19 5 -15 6 4 13 -3 16 -14 3 -12 10 -18 16 -15 6 4 13 -4 17
-18 3 -15 11 -23 19 -20 7 3 16 -4 20 -15 3 -12 11 -19 16 -16 5 4 9 1 9 -5 0
-6 5 -8 10 -5 6 3 10 1 10 -4 0 -6 7 -11 15 -11 8 0 15 -7 15 -16 0 -8 4 -13
9 -9 5 3 12 1 16 -5 3 -5 15 -10 26 -10 10 0 19 -4 19 -10 0 -5 11 -10 25 -10
17 0 29 -8 36 -22 8 -20 9 -20 6 -3 -3 15 1 21 14 22 10 1 21 -2 24 -8 3 -5
-2 -6 -12 -3 -15 6 -15 4 2 -9 14 -11 24 -12 32 -5 9 7 18 6 30 -3 14 -12 15
-12 9 0 -7 10 -3 12 14 6 17 -6 21 -4 15 6 -5 8 1 6 12 -4 20 -18 22 -18 42 4
12 13 21 20 21 16 0 -4 12 -2 26 3 16 7 23 7 19 0 -3 -6 -1 -10 4 -10 6 0 11
5 11 11 0 5 5 7 10 4 6 -3 10 0 10 7 0 10 3 9 11 -2 9 -12 10 -10 5 9 -4 18
-2 21 7 12 14 -14 30 -14 21 1 -5 7 -3 8 5 4 7 -5 19 0 27 10 9 11 13 13 9 4
-4 -8 2 -5 13 8 14 15 22 18 25 10 3 -8 6 -5 6 6 1 13 6 16 18 12 10 -4 14 -4
10 0 -4 4 4 17 18 29 13 13 21 26 17 31 -4 4 1 4 10 1 10 -3 17 -3 16 1 -3 14
22 62 32 62 6 0 8 5 4 12 -5 8 -2 9 10 5 9 -4 15 -3 11 2 -3 5 1 12 7 15 7 3
2 3 -12 0 -24 -6 -24 -5 -6 8 12 10 16 20 11 28 -5 8 -4 11 3 6 15 -9 24 9 30
58 2 23 9 44 16 48 8 5 7 8 -2 8 -8 0 -12 6 -9 13 2 6 10 11 16 9 7 -1 10 2 6
8 -3 6 -11 8 -16 5 -13 -9 -11 9 4 24 10 11 10 13 0 7 -7 -4 -13 -3 -13 1 0 5
6 15 13 22 10 11 10 13 0 7 -7 -4 -13 -3 -13 3 0 5 6 12 13 14 10 4 10 6 0 6
-8 1 -13 16 -13 41 0 22 -4 40 -9 40 -5 0 -12 7 -15 16 -6 15 -4 15 10 3 16
-13 16 -12 3 11 -8 14 -22 31 -32 38 -11 8 -16 21 -12 32 3 10 0 22 -6 26 -8
5 -9 3 -4 -6 5 -8 4 -11 -2 -7 -6 4 -13 20 -16 37 -4 19 -16 34 -31 42 -14 6
-24 14 -23 17 2 3 -10 18 -25 33 -15 15 -28 24 -28 21 0 -3 -9 4 -20 17 -11
13 -20 20 -20 15 0 -4 -7 -2 -15 5 -8 7 -15 9 -15 4 0 -5 -7 2 -16 15 -11 16
-19 20 -27 12 -7 -7 -15 -5 -24 7 -8 9 -11 11 -8 4 6 -11 3 -12 -13 -3 -27 14
-45 14 -36 -1 4 -7 3 -8 -5 -4 -6 4 -9 12 -5 17 4 7 -25 10 -79 8 -46 -1 -90
2 -97 6 -9 5 -11 4 -6 -3 4 -7 1 -12 -8 -12 -8 0 -17 6 -20 13 -3 6 -4 3 -1
-8 4 -17 0 -20 -28 -20 -30 0 -33 3 -30 25 2 14 0 19 -3 13 -9 -19 -24 -16
-17 4 4 9 2 14 -3 11 -11 -7 -35 17 -27 26 4 3 -2 6 -12 6 -15 0 -16 2 -4 17
8 9 9 14 3 10 -6 -3 -20 1 -30 9 -10 9 -14 13 -7 10 6 -4 14 -2 17 3 4 5 -5 8
-20 6 -17 -1 -22 1 -15 8 11 11 -9 37 -28 37 -6 0 -11 5 -11 11 0 5 5 7 12 3
7 -4 8 -3 4 5 -6 9 -11 9 -22 0 -9 -7 -14 -8 -13 -3 5 27 -2 46 -15 41 -10 -4
-14 0 -11 13 2 12 -1 17 -10 14 -7 -3 -16 0 -21 7 -4 8 -3 10 4 5 8 -5 10 -2
6 8 -3 9 -10 13 -15 10 -5 -3 -6 1 -3 9 3 8 -2 17 -10 20 -11 4 -13 1 -10 -11
5 -15 4 -15 -6 1 -6 9 -9 21 -5 26 3 5 0 13 -6 17 -8 5 -9 3 -4 -7 8 -12 6
-12 -9 0 -13 11 -14 16 -4 22 9 6 6 9 -11 9 -18 0 -22 4 -17 17 4 10 4 14 0
10 -4 -4 -16 7 -26 23 -20 34 -23 44 -8 35 6 -3 10 1 10 10 0 10 -5 13 -12 9
-14 -9 10 26 27 38 6 4 6 8 1 8 -5 0 -3 7 4 15 10 12 10 15 -1 15 -12 0 -12 2
0 9 8 5 11 16 8 26 -4 9 -3 14 3 10 6 -3 10 -1 10 5 0 6 5 8 12 4 7 -4 8 -3 4
5 -4 6 -13 8 -19 5 -8 -5 -8 -3 1 7 14 16 16 33 2 24 -6 -3 -7 1 -4 9 3 9 9
14 13 12 4 -3 7 4 7 14 0 10 -4 16 -8 14 -4 -3 -8 2 -8 11 0 10 5 14 13 9 10
-6 10 -4 0 7 -7 7 -13 17 -13 22 0 4 6 5 13 2 6 -4 5 0 -5 7 -12 11 -14 18 -6
33 9 14 7 21 -8 32 -20 14 -30 47 -11 37 8 -5 7 -2 0 7 -7 7 -13 21 -13 30 0
9 -6 19 -14 22 -9 4 -12 14 -9 28 5 18 3 21 -11 16 -14 -6 -16 -3 -11 13 4 12
2 20 -5 20 -6 0 -8 4 -5 10 4 6 -1 7 -11 3 -14 -5 -16 -2 -12 15 5 16 2 20
-14 17 -12 -3 -18 -2 -15 1 9 9 -43 54 -62 54 -10 0 -12 3 -5 8 7 4 1 17 -18
34 -31 30 -38 26 -10 -5 12 -14 6 -12 -22 7 -21 14 -43 23 -49 19 -6 -4 -8 0
-4 10 4 11 2 14 -9 10 -8 -3 -14 1 -14 8 0 12 -2 12 -9 1 -6 -11 -10 -10 -15
4 -6 16 -8 16 -21 -2 -9 -10 -15 -14 -14 -9 3 22 -1 35 -12 35 -5 0 -8 -4 -4
-9 3 -5 1 -13 -5 -16 -6 -4 -9 -1 -8 5 4 17 -33 22 -51 7 -10 -8 -13 -8 -8 -1
4 7 -2 14 -13 17 -11 3 -20 1 -20 -4 0 -6 -8 -5 -20 1 -15 8 -20 8 -20 -1 0
-9 -3 -9 -14 0 -10 8 -16 9 -21 1z m585 -410 c0 -5 -2 -10 -4 -10 -3 0 -8 5
-11 10 -3 6 -1 10 4 10 6 0 11 -4 11 -10z m550 -1764 c0 -3 -4 -8 -10 -11 -5
-3 -10 -1 -10 4 0 6 5 11 10 11 6 0 10 -2 10 -4z"/>
<path d="M2422 4284 c10 -10 20 -16 22 -13 3 3 -5 11 -17 18 -21 13 -21 12 -5
-5z"/>
<path d="M2205 4000 c3 -5 8 -10 11 -10 2 0 4 5 4 10 0 6 -5 10 -11 10 -5 0
-7 -4 -4 -10z"/>
<path d="M3945 2961 c-3 -5 -2 -12 3 -15 5 -3 9 1 9 9 0 17 -3 19 -12 6z"/>
<path d="M3606 2243 c-6 -14 -5 -15 5 -6 7 7 10 15 7 18 -3 3 -9 -2 -12 -12z"/>
<path d="M490 1718 c0 -3 9 -6 20 -5 11 1 20 5 20 9 0 3 -9 6 -20 5 -11 -1
-20 -5 -20 -9z"/>
<path d="M610 1718 c0 -4 4 -8 9 -8 6 0 12 4 15 8 3 5 -1 9 -9 9 -8 0 -15 -4
-15 -9z"/>
<path d="M1170 1719 c0 -5 5 -7 10 -4 6 3 10 8 10 11 0 2 -4 4 -10 4 -5 0 -10
-5 -10 -11z"/>
<path d="M1290 1718 c0 -3 9 -6 20 -5 11 1 20 5 20 9 0 3 -9 6 -20 5 -11 -1
-20 -5 -20 -9z"/>
<path d="M1970 1719 c0 -5 5 -7 10 -4 6 3 10 8 10 11 0 2 -4 4 -10 4 -5 0 -10
-5 -10 -11z"/>
<path d="M2090 1718 c0 -3 9 -6 20 -5 11 1 20 5 20 9 0 3 -9 6 -20 5 -11 -1
-20 -5 -20 -9z"/>
<path d="M2290 1719 c0 -5 5 -7 10 -4 6 3 10 8 10 11 0 2 -4 4 -10 4 -5 0 -10
-5 -10 -11z"/>
<path d="M2410 1718 c0 -3 9 -6 20 -5 11 1 20 5 20 9 0 3 -9 6 -20 5 -11 -1
-20 -5 -20 -9z"/>
<path d="M2770 1719 c0 -5 5 -7 10 -4 6 3 10 8 10 11 0 2 -4 4 -10 4 -5 0 -10
-5 -10 -11z"/>
<path d="M2890 1718 c0 -3 9 -6 20 -5 11 1 20 5 20 9 0 3 -9 6 -20 5 -11 -1
-20 -5 -20 -9z"/>
<path d="M3410 1719 c0 -5 5 -7 10 -4 6 3 10 8 10 11 0 2 -4 4 -10 4 -5 0 -10
-5 -10 -11z"/>
<path d="M3530 1718 c0 -3 9 -6 20 -5 11 1 20 5 20 9 0 3 -9 6 -20 5 -11 -1
-20 -5 -20 -9z"/>
<path d="M3890 1719 c0 -5 5 -7 10 -4 6 3 10 8 10 11 0 2 -4 4 -10 4 -5 0 -10
-5 -10 -11z"/>
<path d="M4010 1718 c0 -3 9 -6 20 -5 11 1 20 5 20 9 0 3 -9 6 -20 5 -11 -1
-20 -5 -20 -9z"/>
<path d="M4210 1719 c0 -5 5 -7 10 -4 6 3 10 8 10 11 0 2 -4 4 -10 4 -5 0 -10
-5 -10 -11z"/>
<path d="M4330 1718 c0 -3 9 -6 20 -5 11 1 20 5 20 9 0 3 -9 6 -20 5 -11 -1
-20 -5 -20 -9z"/>
<path d="M4450 1718 c0 -4 4 -8 9 -8 6 0 12 4 15 8 3 5 -1 9 -9 9 -8 0 -15 -4
-15 -9z"/>
<path d="M5010 1719 c0 -5 5 -7 10 -4 6 3 10 8 10 11 0 2 -4 4 -10 4 -5 0 -10
-5 -10 -11z"/>
<path d="M5130 1718 c0 -3 9 -6 20 -5 11 1 20 5 20 9 0 3 -9 6 -20 5 -11 -1
-20 -5 -20 -9z"/>
<path d="M5790 5210 c0 -5 5 -10 11 -10 5 0 7 5 4 10 -3 6 -8 10 -11 10 -2 0
-4 -4 -4 -10z"/>
<path d="M1851 1093 c3 -20 -2 -27 -11 -13 -8 13 -10 12 -10 -4 0 -20 0 -20
-16 0 -8 10 -13 13 -9 7 3 -7 2 -13 -2 -13 -5 0 -15 6 -22 13 -11 10 -13 10
-7 0 4 -8 1 -13 -8 -13 -8 0 -17 6 -19 13 -4 7 -6 6 -6 -4 -1 -9 -10 -19 -21
-22 -13 -3 -18 -1 -13 5 3 7 1 8 -5 4 -7 -4 -12 -14 -12 -23 0 -13 -3 -13 -15
-3 -8 7 -15 11 -16 9 0 -2 -2 -13 -4 -23 -2 -10 -7 -22 -12 -25 -14 -10 -39
-45 -27 -38 6 3 11 0 11 -8 0 -8 -4 -12 -8 -10 -3 3 -13 -3 -20 -12 -12 -15
-12 -16 4 -10 22 8 22 -2 1 -18 -15 -11 -15 -14 5 -32 13 -12 18 -23 12 -27
-15 -9 30 -75 52 -76 10 0 15 -4 12 -10 -3 -5 -1 -10 5 -10 6 0 8 -5 4 -12 -5
-9 -2 -9 9 1 9 7 17 9 17 4 0 -5 6 -10 13 -10 6 0 31 -3 55 -6 31 -5 41 -3 36
5 -4 6 -3 9 2 6 16 -10 85 -18 80 -10 -3 5 9 7 27 5 78 -8 103 -8 114 0 6 5
20 5 30 0 22 -10 73 -10 91 0 6 5 17 5 22 2 18 -11 120 -13 113 -2 -3 6 -2 8
3 5 16 -10 85 -18 80 -10 -3 5 9 7 27 5 78 -8 103 -8 114 0 6 5 20 5 30 0 22
-10 73 -10 91 0 6 5 17 5 22 2 18 -11 120 -13 113 -2 -3 6 -2 8 3 5 16 -10 85
-18 80 -10 -3 5 9 7 27 5 78 -8 103 -8 114 0 6 5 20 5 30 0 22 -10 73 -10 91
0 6 5 17 5 22 2 18 -11 120 -13 113 -2 -3 6 -2 8 3 5 16 -10 85 -18 80 -10 -3
5 9 7 27 5 78 -8 103 -8 114 0 6 5 20 5 30 0 22 -10 73 -10 91 0 6 5 17 5 22
2 18 -11 120 -13 113 -2 -3 6 -2 8 3 5 16 -10 85 -18 80 -10 -3 5 9 7 27 5 78
-8 103 -8 114 0 6 5 20 5 30 0 22 -10 73 -10 91 0 6 5 17 5 22 2 14 -8 120
-14 115 -6 -2 4 9 6 23 5 15 -1 32 3 39 8 7 5 18 6 25 2 7 -4 10 -4 6 1 -8 8
15 35 30 35 5 0 9 6 8 13 0 6 3 12 7 12 5 0 13 8 19 19 8 14 7 21 -3 27 -8 5
-9 9 -4 9 6 0 11 20 11 45 0 25 -4 45 -8 45 -5 0 -7 3 -7 8 3 19 -2 33 -10 27
-5 -3 -12 -1 -15 4 -4 5 -1 13 5 17 8 5 9 3 4 -6 -5 -9 -4 -11 4 -6 9 6 9 11
0 22 -14 17 -23 18 -13 2 4 -7 -5 0 -19 15 -15 15 -32 25 -37 22 -6 -3 -10 2
-10 12 0 15 -2 16 -11 3 -7 -10 -12 -11 -15 -4 -3 7 -14 9 -26 6 -16 -4 -19
-2 -13 9 6 11 5 12 -6 2 -15 -15 -33 -17 -24 -4 3 5 1 13 -5 16 -6 4 -10 3 -9
-2 3 -20 -2 -27 -11 -13 -8 13 -10 12 -10 -4 0 -18 -1 -18 -17 1 -10 10 -14
13 -9 6 11 -17 -6 -17 -23 0 -11 9 -13 9 -7 0 5 -9 0 -13 -14 -13 -17 0 -21 4
-16 18 5 14 4 14 -9 -2 -8 -11 -15 -16 -15 -12 0 5 -7 2 -17 -5 -15 -13 -15
-12 -4 9 12 23 12 23 -12 7 -18 -11 -27 -13 -32 -5 -5 8 -11 7 -23 -2 -13 -11
-15 -10 -9 5 6 16 5 16 -20 0 -19 -13 -28 -14 -31 -5 -2 6 -8 12 -13 12 -6 0
-7 -4 -4 -10 3 -5 2 -10 -4 -10 -5 0 -12 4 -16 9 -3 6 -14 9 -25 8 -10 -1 -16
-5 -14 -9 3 -4 -4 -8 -16 -8 -12 0 -19 4 -15 9 3 5 1 13 -5 16 -6 4 -10 3 -9
-2 3 -20 -2 -27 -11 -13 -8 13 -10 12 -10 -4 0 -18 -1 -18 -17 1 -10 10 -14
13 -9 6 11 -17 -6 -17 -23 0 -11 9 -13 9 -7 0 5 -8 1 -13 -9 -13 -9 0 -14 4
-11 8 3 5 -1 9 -9 9 -8 0 -12 -4 -9 -9 3 -4 -4 -8 -16 -8 -12 0 -19 4 -15 9 3
5 1 13 -5 16 -6 4 -10 3 -9 -2 3 -20 -2 -27 -11 -13 -8 13 -10 12 -10 -4 0
-18 -1 -18 -17 1 -10 10 -14 13 -9 6 11 -17 -6 -17 -23 0 -11 10 -13 9 -7 -1
5 -8 1 -11 -13 -9 -11 2 -24 6 -27 10 -4 4 -14 1 -22 -6 -13 -10 -15 -9 -9 6
6 16 5 16 -20 0 -19 -13 -28 -14 -31 -5 -2 6 -8 12 -13 12 -6 0 -7 -4 -4 -10
9 -14 -8 -12 -24 3 -11 9 -13 9 -7 0 5 -8 1 -13 -9 -13 -12 0 -15 5 -11 18 5
14 4 14 -9 -2 -8 -11 -15 -16 -15 -12 0 5 -7 2 -17 -5 -15 -13 -15 -12 -3 11
12 22 11 24 -2 13 -8 -7 -19 -9 -23 -5 -5 4 -5 1 -1 -5 4 -7 3 -13 -3 -13 -5
0 -12 6 -14 13 -4 10 -6 10 -6 0 -1 -7 -8 -13 -17 -13 -8 0 -13 4 -9 9 3 5 1
13 -5 16 -6 4 -10 3 -9 -2 3 -20 -2 -27 -11 -13 -8 13 -10 12 -10 -4 0 -18 -1
-18 -17 1 -10 10 -14 13 -9 6 11 -17 -6 -17 -23 0 -11 10 -13 10 -7 0 5 -9 0
-13 -14 -13 -17 0 -21 4 -16 18 5 14 4 14 -9 -2 -8 -11 -15 -16 -15 -12 0 5
-7 2 -17 -5 -15 -13 -15 -12 -4 9 12 23 12 23 -12 7 -18 -11 -27 -13 -32 -5
-5 8 -11 7 -23 -2 -13 -11 -15 -10 -9 5 6 16 5 16 -20 0 -19 -13 -28 -14 -31
-5 -2 6 -8 12 -13 12 -6 0 -7 -4 -4 -10 3 -5 2 -10 -4 -10 -5 0 -12 4 -16 9
-3 6 -14 9 -25 8 -10 -1 -16 -5 -14 -9 3 -4 -4 -8 -16 -8 -12 0 -19 4 -15 9 3
5 1 13 -5 16 -6 4 -10 3 -9 -2 3 -20 -2 -27 -11 -13 -8 13 -10 12 -10 -4 0
-18 -1 -18 -17 1 -10 10 -14 13 -9 6 11 -17 -6 -17 -23 0 -11 10 -13 10 -7 0
5 -8 1 -13 -9 -13 -9 0 -14 4 -11 8 3 5 -1 9 -9 9 -8 0 -12 -4 -9 -9 3 -4 -4
-8 -16 -8 -12 0 -19 4 -15 9 3 5 1 13 -5 16 -6 4 -10 3 -9 -2 3 -20 -2 -27
-11 -13 -8 13 -10 12 -10 -4 0 -18 -1 -18 -17 1 -10 10 -14 13 -9 6 11 -17 -6
-17 -23 0 -11 10 -13 9 -7 -1 5 -8 1 -11 -13 -9 -11 2 -24 6 -27 10 -4 4 -14
1 -22 -6 -13 -10 -15 -9 -9 6 6 16 5 16 -20 0 -19 -13 -28 -14 -31 -5 -2 6 -8
12 -13 12 -6 0 -7 -4 -4 -10 9 -14 -8 -12 -24 3 -11 10 -13 10 -7 0 5 -8 1
-13 -9 -13 -12 0 -15 5 -11 18 5 14 4 14 -9 -2 -8 -11 -15 -16 -15 -12 0 5 -7
2 -17 -5 -15 -13 -15 -12 -3 11 12 22 11 24 -2 13 -8 -7 -19 -9 -23 -5 -5 4
-5 1 -1 -5 4 -7 3 -13 -3 -13 -5 0 -12 6 -14 13 -4 10 -6 10 -6 0 -1 -7 -8
-13 -17 -13 -8 0 -13 4 -9 9 3 5 1 13 -5 16 -6 4 -10 3 -9 -2 3 -20 -2 -27
-11 -13 -8 13 -10 12 -10 -4 0 -18 -1 -18 -17 1 -10 10 -14 13 -9 6 11 -17 -6
-17 -23 0 -11 10 -13 10 -7 0 5 -9 0 -13 -14 -13 -17 0 -21 4 -16 18 5 14 4
14 -9 -2 -8 -11 -15 -16 -15 -12 0 5 -7 2 -17 -5 -15 -13 -15 -12 -4 9 12 23
12 23 -12 7 -18 -11 -27 -13 -32 -5 -5 8 -11 7 -23 -2 -13 -11 -15 -10 -9 5 6
16 5 16 -20 0 -19 -13 -28 -14 -31 -5 -2 6 -8 12 -13 12 -6 0 -7 -4 -4 -10 3
-5 2 -10 -4 -10 -5 0 -12 4 -16 9 -3 6 -14 9 -25 8 -10 -1 -16 -5 -14 -9 3 -4
-4 -8 -16 -8 -12 0 -19 4 -15 9 3 5 1 13 -5 16 -6 4 -10 3 -9 -2z"/>
</g>
</svg>
